<svg width="462" height="462" viewBox="0 0 462 462" fill="none" xmlns="http://www.w3.org/2000/svg">
<g clip-path="url(#clip0_45_199)">
<rect width="462" height="462" rx="231" fill="white"/>
<g clip-path="url(#clip1_45_199)">
<path d="M167 -9H551V471H167V-9Z" fill="#FF0000"/>
<path d="M-89 -9H167V471H-89V-9Z" fill="#006600"/>
<path fill-rule="evenodd" clip-rule="evenodd" d="M250.5 297.2C218.2 296.2 70.5 204 69.5 189.2L77.6 175.7C92.3 197 243.3 286.7 258.2 283.5L250.5 297.2Z" fill="#FFFF00" stroke="black" stroke-width="0.6" stroke-linecap="round" stroke-linejoin="round"/>
<path fill-rule="evenodd" clip-rule="evenodd" d="M75.9 173.8C73 181.6 114.5 207.2 164.3 237.6C214.2 267.9 257.2 286.6 260.3 284L261.8 281.2C261.2 282.2 259.8 282.5 257.5 281.8C244 277.9 208.9 261.8 165.4 235.4C121.8 209 84 184.7 78.1 174.4C77.6401 173.434 77.4336 172.367 77.5 171.3H77.3L76.1 173.5L75.9 173.8ZM251.2 297.6C250.7 298.6 249.6 298.6 247.7 298.4C235.7 297.1 199.1 279.3 155.8 253.4C105.4 223.2 63.8 195.8 68.4 188.6L69.6 186.4L69.8 186.5C65.8 198.7 151.9 247.9 157 251.1C206.8 281.9 248.8 300 252.5 295.3L251.2 297.6Z" fill="#FFFF00" stroke="black" stroke-width="0.6" stroke-linecap="round" stroke-linejoin="round"/>
<path fill-rule="evenodd" clip-rule="evenodd" d="M167.2 198.2C199.4 197.9 239.2 193.8 262.2 184.6L257.2 176.6C243.7 184.1 203.7 189.1 166.9 189.8C123.5 189.4 92.8 185.3 77.4 175L72.8 183.6C101 195.6 130 198.1 167.2 198.2Z" fill="#FFFF00" stroke="black" stroke-width="0.6" stroke-linecap="round" stroke-linejoin="round"/>
<path fill-rule="evenodd" clip-rule="evenodd" d="M263.5 184.8C262.7 186.1 247.7 191.2 225.7 195C206.306 197.939 186.715 199.376 167.1 199.3C148.307 199.37 129.53 198.168 110.9 195.7C87.7999 192.1 75.8999 187.1 71.3999 185.3L72.5 183.1C85.2 188.1 97.2 191.1 111.2 193.3C129.695 195.797 148.338 197.033 167 197C186.513 197.02 206.001 195.583 225.3 192.7C247.8 189 260.1 184.3 261.9 182.2L263.5 184.8ZM259.1 176.7C256.7 178.7 244.5 183 223.1 186.4C204.62 189.074 185.972 190.41 167.3 190.4C145.3 190.4 127.2 188.8 113.5 186.8C91.7 184 80.0999 178.8 75.8999 177.4L77.2 175.2C80.5 176.9 91.6 181.4 113.7 184.5C131.466 186.88 149.376 188.016 167.3 187.9C185.839 187.906 204.354 186.569 222.7 183.9C244.2 180.9 255.8 175.5 257.6 174.1L259.1 176.7ZM61.3 237C81.1 247.7 125.2 253 166.9 253.4C204.9 253.5 254.3 247.6 272.8 237.8L272.3 227.1C266.5 236.1 213.5 244.8 166.5 244.5C119.5 244.1 75.8 236.9 61.2 227.5V237" fill="#FFFF00"/>
<path d="M61.3 237C81.1 247.7 125.2 253 166.9 253.4C204.9 253.5 254.3 247.6 272.8 237.8L272.3 227.1C266.5 236.1 213.5 244.8 166.5 244.5C119.5 244.1 75.8 236.9 61.2 227.5V237M263.5 184.8C262.7 186.1 247.7 191.2 225.7 195C206.306 197.939 186.715 199.376 167.1 199.3C148.307 199.37 129.53 198.168 110.9 195.7C87.7999 192.1 75.8999 187.1 71.3999 185.3L72.5 183.1C85.2 188.1 97.2 191.1 111.2 193.3C129.695 195.797 148.338 197.033 167 197C186.513 197.02 206.001 195.583 225.3 192.7C247.8 189 260.1 184.3 261.9 182.2L263.5 184.8ZM259.1 176.7C256.7 178.7 244.5 183 223.1 186.4C204.62 189.074 185.972 190.41 167.3 190.4C145.3 190.4 127.2 188.8 113.5 186.8C91.7 184 80.0999 178.8 75.8999 177.4L77.2 175.2C80.5 176.9 91.6 181.4 113.7 184.5C131.466 186.88 149.376 188.016 167.3 187.9C185.839 187.906 204.354 186.569 222.7 183.9C244.2 180.9 255.8 175.5 257.6 174.1L259.1 176.7Z" stroke="black" stroke-width="0.6" stroke-linecap="round" stroke-linejoin="round"/>
<path fill-rule="evenodd" clip-rule="evenodd" d="M273.8 235.5V238C271 241.4 253.6 246.4 231.8 250C210.142 253.113 188.28 254.584 166.4 254.4C145.653 254.577 124.924 253.139 104.4 250.1C89.0856 248.33 74.1209 244.286 60 238.1V235.2C69.7 241.6 95.9 246.4 104.7 247.8C120.5 250.2 140.8 252 166.4 252C193.3 252 214.8 250.1 231.4 247.6C247.1 245.3 269.4 239.4 273.8 235.5ZM273.8 226.5V229C271 232.3 253.6 237.3 231.8 240.9C210.145 244.047 188.282 245.551 166.4 245.4C145.655 245.522 124.93 244.085 104.4 241.1C89.0856 239.33 74.1209 235.286 60 229.1V226.1C69.7 232.6 96 237.3 104.7 238.7C125.128 241.692 145.754 243.13 166.4 243C193.3 243 214.9 241 231.4 238.5C247.1 236.3 269.4 230.4 273.8 226.5ZM166.8 295.3C121.2 295.1 82.1 282.9 73.8 280.9L79.8 290.3C107.849 300.234 137.448 305.077 167.2 304.6C201.9 303.6 232.2 300.9 253.5 290.5L259.7 280.7C245.2 287.6 195.7 295.3 166.7 295.3" fill="#FFFF00"/>
<path d="M166.8 295.3C121.2 295.1 82.1 282.9 73.8 280.9L79.8 290.3C107.849 300.234 137.448 305.077 167.2 304.6C201.9 303.6 232.2 300.9 253.5 290.5L259.7 280.7C245.2 287.6 195.7 295.3 166.7 295.3M273.8 235.5V238C271 241.4 253.6 246.4 231.8 250C210.142 253.113 188.28 254.584 166.4 254.4C145.653 254.577 124.924 253.139 104.4 250.1C89.0856 248.33 74.1209 244.286 60 238.1V235.2C69.7 241.6 95.9 246.4 104.7 247.8C120.5 250.2 140.8 252 166.4 252C193.3 252 214.8 250.1 231.4 247.6C247.1 245.3 269.4 239.4 273.8 235.5ZM273.8 226.5V229C271 232.3 253.6 237.3 231.8 240.9C210.145 244.047 188.282 245.551 166.4 245.4C145.655 245.522 124.93 244.085 104.4 241.1C89.0856 239.33 74.1209 235.286 60 229.1V226.1C69.7 232.6 96 237.3 104.7 238.7C125.128 241.692 145.754 243.13 166.4 243C193.3 243 214.9 241 231.4 238.5C247.1 236.3 269.4 230.4 273.8 226.5Z" stroke="black" stroke-width="0.6" stroke-linecap="round" stroke-linejoin="round"/>
<path fill-rule="evenodd" clip-rule="evenodd" d="M255.9 288.3C254.989 289.649 254.056 290.983 253.1 292.3C243.1 295.9 227.1 299.7 220.5 300.7C202.79 304 184.815 305.674 166.8 305.7C126.4 305.1 93.3 297.2 77.8 290.4L76.5 288.3L76.7 287.9L78.8 288.8C107.26 298.218 137.022 303.111 167 303.3C185.8 303.3 204.5 301.2 219.6 298.5C242.8 293.8 252.2 290.3 255.1 288.7L255.8 288.3H255.9ZM261.2 279.5C260.542 280.671 259.875 281.838 259.2 283C253.8 285 239.2 289.2 217.9 292.2C203.9 294.1 195.2 296 167.3 296.5C135.406 296.18 103.708 291.469 73.1 282.5L72 280C103.098 288.595 135.143 293.297 167.4 294C192.9 293.5 203.8 291.6 217.7 289.7C242.5 285.9 255 281.7 258.7 280.6C258.702 280.533 258.702 280.467 258.7 280.4L261.3 279.4L261.2 279.5Z" fill="#FFFF00" stroke="black" stroke-width="0.6" stroke-linecap="round" stroke-linejoin="round"/>
<path fill-rule="evenodd" clip-rule="evenodd" d="M261.8 228.6C261.9 258.6 246.5 285.6 234.2 297.4C216.034 315.118 191.773 325.208 166.4 325.6C136.1 326.1 107.6 306.4 99.9001 297.7C82.6744 279.433 72.8704 255.404 72.4001 230.3C74.2001 197.5 87.1001 174.7 105.7 159C123.769 144.126 146.498 136.089 169.9 136.3C183.561 136.962 196.933 140.471 209.16 146.602C221.386 152.732 232.197 161.349 240.9 171.9C253.4 187.1 258.9 203.6 261.8 228.6ZM166.6 126C194.575 125.999 221.416 137.057 241.272 156.763C261.128 176.469 272.389 203.226 272.6 231.2C272.6 245.081 269.866 258.826 264.554 271.65C259.242 284.474 251.456 296.126 241.641 305.941C231.826 315.756 220.174 323.542 207.35 328.854C194.526 334.166 180.781 336.9 166.9 336.9C153.019 336.9 139.275 334.166 126.45 328.854C113.626 323.542 101.974 315.756 92.1589 305.941C82.3438 296.126 74.558 284.474 69.246 271.65C63.9341 258.826 61.2001 245.081 61.2001 231.2C61.1001 173.2 108.5 126 166.6 126Z" fill="#FFFF00" stroke="black" stroke-width="0.6" stroke-linecap="round" stroke-linejoin="round"/>
<path fill-rule="evenodd" clip-rule="evenodd" d="M166.9 125.5C225.1 125.5 272.5 172.9 272.5 231.1C272.5 289.3 225.1 336.7 167 336.7C108.9 336.7 61.3999 289.3 61.3999 231.1C61.3999 172.9 108.8 125.5 167 125.5H166.9ZM63.5999 231C63.5999 287.8 110.3 334.3 166.9 334.3C223.5 334.3 270.2 287.8 270.2 231C270.2 174.2 223.5 127.7 166.9 127.7C110.3 127.7 63.5999 174.2 63.5999 231Z" fill="#FFFF00" stroke="black" stroke-width="0.6" stroke-linecap="round" stroke-linejoin="round"/>
<path fill-rule="evenodd" clip-rule="evenodd" d="M167 134.3C192.622 134.379 217.172 144.593 235.29 162.71C253.408 180.828 263.621 205.378 263.7 231C263.621 256.631 253.411 281.192 235.296 299.325C217.181 317.459 192.631 327.695 167 327.8C114 327.8 70.3 284.2 70.3 231C70.4053 205.386 80.6272 180.851 98.7392 162.739C116.851 144.627 141.386 134.405 167 134.3ZM72.6001 231C72.6001 283 115.2 325.4 167 325.4C218.8 325.4 261.4 282.9 261.4 231C261.4 179 218.8 136.6 167 136.6C141.996 136.705 118.046 146.685 100.365 164.365C82.6848 182.046 72.7053 205.996 72.6001 231Z" fill="#FFFF00" stroke="black" stroke-width="0.6" stroke-linecap="round" stroke-linejoin="round"/>
<path fill-rule="evenodd" clip-rule="evenodd" d="M171.3 125H162.2V337.3H171.2L171.3 125Z" fill="#FFFF00" stroke="black" stroke-width="0.6" stroke-linecap="round" stroke-linejoin="round"/>
<path fill-rule="evenodd" clip-rule="evenodd" d="M170.3 123.8H172.6V338.5H170.4V123.8H170.3ZM161.3 123.8H163.7V338.5H161.4L161.3 123.8Z" fill="#FFFF00" stroke="black" stroke-width="0.6" stroke-linecap="round" stroke-linejoin="round"/>
<path fill-rule="evenodd" clip-rule="evenodd" d="M272.6 235.2V227.4L266.2 221.4L229.9 211.8L177.7 206.5L114.7 209.7L69.8999 220.3L60.8999 227V234.9L83.7999 224.6L138.2 216.1H190.5L228.9 220.3L255.5 226.7L272.6 235.2Z" fill="#FFFF00" stroke="black" stroke-width="0.6" stroke-linecap="round" stroke-linejoin="round"/>
<path fill-rule="evenodd" clip-rule="evenodd" d="M167 214.8C191.9 214.8 216 217.1 235.3 220.8C255.1 224.8 269 229.8 273.8 235.3V238.1C268 231.1 249.3 226.1 234.8 223.1C215.8 219.5 191.8 217.1 166.9 217.1C140.8 217.1 116.4 219.7 97.6 223.3C82.6 226.3 62.5 232.3 60 238.1V235.2C61.3 231.2 76.3 225.2 97.3 220.9C116.2 217.2 140.6 214.8 166.9 214.8H167ZM167 205.7C189.9 205.654 212.758 207.662 235.3 211.7C255.1 215.7 269 220.7 273.8 226.3V229C268 222.1 249.3 217 234.8 214.1C215.8 210.4 191.8 208.1 166.9 208.1C143.691 208.027 120.526 210.102 97.7 214.3C83.2 217 62.3 223.2 60 229V226.2C61.4 222.2 76.6 215.9 97.3 211.9C116.3 208.2 140.6 205.7 167 205.7ZM166.4 159.5C205.7 159.3 240 165 255.7 173L261.4 183C247.8 175.6 210.8 168 166.5 169C130.4 169.3 91.8 173 72.5 183.4L79.3 172C95.2 163.7 132.6 159.5 166.4 159.5Z" fill="#FFFF00" stroke="black" stroke-width="0.6" stroke-linecap="round" stroke-linejoin="round"/>
<path fill-rule="evenodd" clip-rule="evenodd" d="M167 167.7C187.519 167.354 208.03 168.792 228.3 172C244.3 175 259.6 179.4 261.8 181.8L263.5 184.8C258.2 181.4 244.9 177.5 227.9 174.3C210.9 171.1 189.2 170 166.9 170.1C141.6 170 121.9 171.3 105.1 174.3C93.519 175.923 82.275 179.401 71.8 184.6L73.5 181.5C79.5 178.5 88.8001 174.8 104.6 171.9C122.1 168.7 142 167.8 167 167.7ZM167 158.7C188.4 158.5 209.6 159.7 226.1 162.7C236.79 164.287 247.136 167.668 256.7 172.7L259.2 176.7C255 172 239.2 167.5 225.1 165.1C208.7 162.2 188.4 161.1 167 160.9C147.079 160.722 127.178 162.194 107.5 165.3C97.2108 166.734 87.2176 169.806 77.9 174.4L80.1001 171.1C85.9001 168.1 95.3001 165.3 107.1 163C126.908 159.853 146.945 158.381 167 158.6V158.7ZM219.4 275C202.067 271.999 184.487 270.66 166.9 271C101.4 271.8 80.3 284.5 77.7 288.3L72.7 280.3C89.5 268.3 125.1 261.5 167.3 262.1C189.2 262.5 208.1 264 223.9 267.1L219.4 275.1" fill="#FFFF00"/>
<path d="M219.4 275C202.067 271.999 184.487 270.66 166.9 271C101.4 271.8 80.3 284.5 77.7 288.3L72.7 280.3C89.5 268.3 125.1 261.5 167.3 262.1C189.2 262.5 208.1 264 223.9 267.1L219.4 275.1M167 167.7C187.519 167.354 208.03 168.792 228.3 172C244.3 175 259.6 179.4 261.8 181.8L263.5 184.8C258.2 181.4 244.9 177.5 227.9 174.3C210.9 171.1 189.2 170 166.9 170.1C141.6 170 121.9 171.3 105.1 174.3C93.519 175.923 82.275 179.401 71.8 184.6L73.5 181.5C79.5 178.5 88.8001 174.8 104.6 171.9C122.1 168.7 142 167.8 167 167.7ZM167 158.7C188.4 158.5 209.6 159.7 226.1 162.7C236.79 164.287 247.136 167.668 256.7 172.7L259.2 176.7C255 172 239.2 167.5 225.1 165.1C208.7 162.2 188.4 161.1 167 160.9C147.079 160.722 127.178 162.194 107.5 165.3C97.2108 166.734 87.2176 169.806 77.9 174.4L80.1001 171.1C85.9001 168.1 95.3001 165.3 107.1 163C126.908 159.853 146.945 158.381 167 158.6V158.7Z" stroke="black" stroke-width="0.6" stroke-linecap="round" stroke-linejoin="round"/>
<path fill-rule="evenodd" clip-rule="evenodd" d="M166.6 269.9C184.8 270.2 202.6 270.9 219.9 274.1L218.7 276.3C202.7 273.3 185.5 272.3 166.7 272.3C142.4 272.1 118 274.4 96.6999 280.5C89.9999 282.4 78.8999 286.7 77.6999 290.3L76.4999 288.3C76.8999 286.1 83.4999 281.7 96.0999 278.3C120.5 271.3 143.3 270 166.6 269.9ZM167.4 260.7C186.61 260.68 205.784 262.354 224.7 265.7L223.4 268C204.929 264.612 186.179 262.971 167.4 263.1C143.2 263.1 117.5 264.9 94.0999 271.7C86.5999 273.9 73.4999 278.7 73.0999 282.4L71.8999 280.2C72.0999 276.8 83.3999 272.3 93.5999 269.4C117.1 262.5 142.9 260.8 167.4 260.7Z" fill="#FFFF00" stroke="black" stroke-width="0.6" stroke-linecap="round" stroke-linejoin="round"/>
<path fill-rule="evenodd" clip-rule="evenodd" d="M260.4 281.5L252.6 293.8L229.9 273.7L171.3 234.2L105.1 197.9L70.8 186.2L78.1001 172.6L80.6001 171.3L101.9 176.6L172.3 212.9L212.9 238.5L247 263L260.9 279L260.4 281.5Z" fill="#FFFF00" stroke="black" stroke-width="0.6" stroke-linecap="round" stroke-linejoin="round"/>
<path fill-rule="evenodd" clip-rule="evenodd" d="M69.6001 186.5C75.6001 182.5 119.8 202.1 166.2 230.1C212.3 258.1 256.5 289.7 252.5 295.6L251.2 297.7L250.6 298.2C250.7 298.1 251.4 297.2 250.6 295.1C248.6 288.6 217.2 263.6 165.3 232.2C114.6 202.1 72.4 183.9 68.3 189.1L69.6001 186.5ZM262 281.4C265.8 273.8 224.8 242.9 173.9 212.8C121.9 183.3 84.3 165.9 77.4 171.1L76 174C76 174.1 76 173.8 76.4 173.5C77.6 172.5 79.7001 172.5 80.6001 172.5C92.4001 172.7 126.1 188.2 173.4 215.3C194.2 227.3 261 270.3 260.7 282.3C260.7 283.3 260.8 283.5 260.4 284.1L262.1 281.5L262 281.4Z" fill="#FFFF00" stroke="black" stroke-width="0.6" stroke-linecap="round" stroke-linejoin="round"/>
<path d="M103.641 242.767C103.656 251.047 105.314 259.242 108.519 266.877C111.723 274.512 116.409 281.436 122.307 287.247C128.133 293.163 135.072 297.868 142.725 301.09C150.377 304.312 158.591 305.988 166.894 306.021C183.698 306.02 199.813 299.343 211.694 287.461C217.571 281.617 222.236 274.67 225.422 267.019C228.607 259.367 230.249 251.162 230.254 242.874V158.394L103.641 158.18V242.767Z" fill="white" stroke="black" stroke-width="0.746669"/>
<path d="M106.201 242.874C106.223 250.817 107.818 258.676 110.894 265.999C113.97 273.322 118.465 279.964 124.121 285.541C135.477 296.957 150.898 303.401 167.001 303.461C183.075 303.47 198.496 297.102 209.881 285.754C215.517 280.169 219.993 273.523 223.05 266.2C226.108 258.878 227.686 251.023 227.694 243.087V160.954H106.201V242.874ZM203.268 185.594V237.754L203.161 243.194C203.197 247.959 202.271 252.683 200.438 257.082C198.605 261.48 195.903 265.464 192.494 268.794C185.711 275.601 176.504 279.437 166.894 279.461C156.867 279.461 148.014 275.194 141.401 268.581C134.594 261.798 130.758 252.59 130.734 242.981V185.38L203.268 185.594Z" fill="#FF0000" stroke="black" stroke-width="0.533335"/>
<path d="M113.881 182.394C113.987 176.527 118.147 175.141 118.147 175.141C118.254 175.141 122.734 176.634 122.734 182.501L113.881 182.394Z" fill="#FFFF00"/>
<path d="M110.254 175.247L109.507 181.967H113.987C113.987 176.421 118.254 175.567 118.254 175.567C118.361 175.567 122.521 176.741 122.627 181.967H127.107L126.254 175.141L110.254 175.247ZM109.187 182.074H127.321C127.641 182.074 127.961 182.394 127.961 182.821C127.961 183.354 127.641 183.674 127.321 183.674H109.187C108.867 183.674 108.547 183.354 108.547 182.821C108.547 182.394 108.867 182.074 109.294 182.074H109.187Z" fill="#FFFF00" stroke="black" stroke-width="0.533335"/>
<path d="M115.801 181.967C115.801 178.447 118.254 177.487 118.254 177.487C118.254 177.487 120.707 178.554 120.707 181.967H115.801ZM109.614 172.367H127.001C127.321 172.367 127.641 172.794 127.641 173.22C127.641 173.54 127.321 173.86 127.001 173.86H109.614C109.294 173.86 108.974 173.54 108.974 173.114C108.974 172.794 109.294 172.474 109.614 172.474V172.367ZM110.041 173.967H126.468C126.788 173.967 127.108 174.287 127.108 174.714C127.108 175.14 126.788 175.46 126.468 175.46H109.934C109.507 175.46 109.294 175.14 109.294 174.714C109.294 174.287 109.507 173.967 109.934 173.967H110.041ZM115.374 162.66H116.654V163.514H117.614V162.66H119.001V163.62H119.961V162.554H121.241V164.687C121.241 165.114 121.027 165.327 120.707 165.327H116.014C115.694 165.327 115.374 165.114 115.374 164.794V162.66ZM120.281 165.54L120.601 172.367H116.014L116.334 165.434H120.281" fill="#FFFF00"/>
<path d="M120.281 165.54L120.601 172.367H116.014L116.334 165.434H120.281M115.801 181.967C115.801 178.447 118.254 177.487 118.254 177.487C118.254 177.487 120.707 178.554 120.707 181.967H115.801ZM109.614 172.367H127.001C127.321 172.367 127.641 172.794 127.641 173.22C127.641 173.54 127.321 173.86 127.001 173.86H109.614C109.294 173.86 108.974 173.54 108.974 173.114C108.974 172.794 109.294 172.474 109.614 172.474V172.367ZM110.041 173.967H126.468C126.788 173.967 127.108 174.287 127.108 174.714C127.108 175.14 126.788 175.46 126.468 175.46H109.934C109.507 175.46 109.294 175.14 109.294 174.714C109.294 174.287 109.507 173.967 109.934 173.967H110.041ZM115.374 162.66H116.654V163.514H117.614V162.66H119.001V163.62H119.961V162.554H121.241V164.687C121.241 165.114 121.027 165.327 120.707 165.327H116.014C115.694 165.327 115.374 165.114 115.374 164.794V162.66Z" stroke="black" stroke-width="0.533335"/>
<path d="M114.734 168.74V172.367H110.467V168.74H114.734Z" fill="#FFFF00" stroke="black" stroke-width="0.533335"/>
<path d="M126.041 168.74V172.367H121.774V168.74H126.041Z" fill="#FFFF00" stroke="black" stroke-width="0.533335"/>
<path d="M109.721 165.967H111.001V167.034H111.961V165.967H113.241V167.034H114.201V165.967H115.481V168.1C115.481 168.527 115.267 168.74 114.947 168.74H110.361C110.191 168.74 110.028 168.673 109.908 168.553C109.788 168.433 109.721 168.27 109.721 168.1V165.967Z" fill="#FFFF00" stroke="black" stroke-width="0.533335"/>
<path d="M121.027 165.967H122.307V167.034H123.267V165.967H124.547V167.034H125.507V165.967H126.787V168.1C126.787 168.527 126.574 168.74 126.254 168.74H121.667C121.498 168.74 121.335 168.673 121.215 168.553C121.095 168.433 121.027 168.27 121.027 168.1V165.967Z" fill="#FFFF00" stroke="black" stroke-width="0.533335"/>
<path d="M117.827 167.674C117.827 167.034 118.787 167.034 118.787 167.674V169.38H117.827V167.674Z" fill="#000001"/>
<path d="M112.174 170.02C112.174 169.38 113.027 169.38 113.027 170.02V171.3H112.174V170.02Z" fill="#000001"/>
<path d="M123.481 170.02C123.481 169.38 124.334 169.38 124.334 170.02V171.3H123.481V170.02Z" fill="#000001"/>
<path d="M113.881 231.781C113.987 225.914 118.147 224.527 118.147 224.527C118.254 224.527 122.734 226.021 122.734 231.887L113.881 231.781Z" fill="#FFFF00"/>
<path d="M110.254 224.634L109.507 231.354H113.987C113.987 225.807 118.254 224.954 118.254 224.954C118.361 224.954 122.521 226.127 122.627 231.354H127.107L126.254 224.527L110.254 224.634ZM109.187 231.461H127.321C127.641 231.461 127.961 231.781 127.961 232.207C127.961 232.741 127.641 233.061 127.321 233.061H109.187C108.867 233.061 108.547 232.741 108.547 232.207C108.547 231.781 108.867 231.461 109.294 231.461H109.187Z" fill="#FFFF00" stroke="black" stroke-width="0.533335"/>
<path d="M115.801 231.354C115.801 227.834 118.254 226.874 118.254 226.874C118.254 226.874 120.707 227.941 120.707 231.354H115.801ZM109.614 221.754H127.001C127.321 221.754 127.641 222.181 127.641 222.607C127.641 222.927 127.321 223.247 127.001 223.247H109.614C109.294 223.247 108.974 222.927 108.974 222.501C108.974 222.181 109.294 221.861 109.614 221.861V221.754ZM110.041 223.354H126.468C126.788 223.354 127.108 223.674 127.108 224.101C127.108 224.527 126.788 224.847 126.468 224.847H109.934C109.507 224.847 109.294 224.527 109.294 224.101C109.294 223.674 109.507 223.354 109.934 223.354H110.041ZM115.374 212.047H116.654V212.901H117.614V212.047H119.001V213.007H119.961V211.941H121.241V214.074C121.241 214.501 121.027 214.714 120.707 214.714H116.014C115.694 214.714 115.374 214.501 115.374 214.181V212.047ZM120.281 214.927L120.601 221.754H116.014L116.334 214.821H120.281" fill="#FFFF00"/>
<path d="M120.281 214.927L120.601 221.754H116.014L116.334 214.821H120.281M115.801 231.354C115.801 227.834 118.254 226.874 118.254 226.874C118.254 226.874 120.707 227.941 120.707 231.354H115.801ZM109.614 221.754H127.001C127.321 221.754 127.641 222.181 127.641 222.607C127.641 222.927 127.321 223.247 127.001 223.247H109.614C109.294 223.247 108.974 222.927 108.974 222.501C108.974 222.181 109.294 221.861 109.614 221.861V221.754ZM110.041 223.354H126.468C126.788 223.354 127.108 223.674 127.108 224.101C127.108 224.527 126.788 224.847 126.468 224.847H109.934C109.507 224.847 109.294 224.527 109.294 224.101C109.294 223.674 109.507 223.354 109.934 223.354H110.041ZM115.374 212.047H116.654V212.901H117.614V212.047H119.001V213.007H119.961V211.941H121.241V214.074C121.241 214.501 121.027 214.714 120.707 214.714H116.014C115.694 214.714 115.374 214.501 115.374 214.181V212.047Z" stroke="black" stroke-width="0.533335"/>
<path d="M114.734 218.127V221.754H110.467V218.127H114.734Z" fill="#FFFF00" stroke="black" stroke-width="0.533335"/>
<path d="M126.041 218.127V221.754H121.774V218.127H126.041Z" fill="#FFFF00" stroke="black" stroke-width="0.533335"/>
<path d="M109.721 215.354H111.001V216.421H111.961V215.354H113.241V216.421H114.201V215.354H115.481V217.487C115.481 217.914 115.267 218.127 114.947 218.127H110.361C110.191 218.127 110.028 218.06 109.908 217.94C109.788 217.82 109.721 217.657 109.721 217.487V215.354Z" fill="#FFFF00" stroke="black" stroke-width="0.533335"/>
<path d="M121.027 215.354H122.307V216.421H123.267V215.354H124.547V216.421H125.507V215.354H126.787V217.487C126.787 217.914 126.574 218.127 126.254 218.127H121.667C121.498 218.127 121.335 218.06 121.215 217.94C121.095 217.82 121.027 217.657 121.027 217.487V215.354Z" fill="#FFFF00" stroke="black" stroke-width="0.533335"/>
<path d="M117.827 217.061C117.827 216.421 118.787 216.421 118.787 217.061V218.767H117.827V217.061Z" fill="#000001"/>
<path d="M112.174 219.407C112.174 218.767 113.027 218.767 113.027 219.407V220.687H112.174V219.407Z" fill="#000001"/>
<path d="M123.481 219.407C123.481 218.767 124.334 218.767 124.334 219.407V220.687H123.481V219.407Z" fill="#000001"/>
<path d="M133.131 283.252C129.043 279.043 130.99 275.114 130.99 275.114C131.065 275.038 135.282 272.912 139.445 277.046L133.131 283.252Z" fill="#FFFF00"/>
<path d="M125.504 280.79L129.746 286.055L132.903 282.876C128.967 278.968 131.368 275.339 131.368 275.339C131.443 275.263 135.207 273.138 138.991 276.745L142.148 273.567L136.703 269.362L125.504 280.79ZM129.597 286.357L142.374 273.49C142.599 273.263 143.052 273.262 143.355 273.562C143.733 273.938 143.735 274.391 143.509 274.618L130.732 287.485C130.506 287.712 130.054 287.713 129.675 287.338C129.373 287.037 129.371 286.584 129.672 286.282L129.597 286.357Z" fill="#FFFF00" stroke="black" stroke-width="0.533335"/>
<path d="M134.181 281.589C131.683 279.109 132.731 276.692 132.731 276.692C132.731 276.692 135.216 275.703 137.638 278.108L134.181 281.589ZM123.009 279.215L135.261 266.878C135.486 266.651 136.014 266.724 136.317 267.025C136.544 267.25 136.546 267.703 136.32 267.93L124.069 280.267C123.844 280.494 123.391 280.496 123.088 280.195C122.861 279.97 122.86 279.517 123.085 279.29L123.009 279.215ZM124.445 280.04L136.02 268.384C136.246 268.157 136.698 268.155 137.001 268.456C137.304 268.756 137.305 269.209 137.08 269.436L125.43 281.167C125.129 281.47 124.752 281.396 124.449 281.095C124.146 280.795 124.07 280.418 124.37 280.115L124.445 280.04ZM120.181 268.288L121.083 267.38L121.688 267.981L122.364 267.3L121.759 266.699L122.736 265.715L123.417 266.391L124.094 265.71L123.337 264.958L124.239 264.05L125.753 265.553C126.055 265.854 126.056 266.156 125.831 266.383L122.524 269.713C122.298 269.94 121.921 270.017 121.694 269.791L120.181 268.288ZM125.682 266.836L130.751 271.419L127.519 274.674L122.825 269.561L125.606 266.761" fill="#FFFF00"/>
<path d="M125.682 266.836L130.751 271.419L127.519 274.674L122.825 269.561L125.606 266.761M134.181 281.589C131.683 279.109 132.731 276.692 132.731 276.692C132.731 276.692 135.216 275.703 137.638 278.108L134.181 281.589ZM123.009 279.215L135.261 266.878C135.486 266.651 136.014 266.724 136.317 267.025C136.544 267.25 136.546 267.703 136.32 267.93L124.069 280.267C123.844 280.494 123.391 280.496 123.088 280.195C122.861 279.97 122.86 279.517 123.085 279.29L123.009 279.215ZM124.445 280.04L136.02 268.384C136.246 268.157 136.698 268.155 137.001 268.456C137.304 268.756 137.305 269.209 137.08 269.436L125.43 281.167C125.129 281.47 124.752 281.396 124.449 281.095C124.146 280.795 124.07 280.418 124.37 280.115L124.445 280.04ZM120.181 268.288L121.083 267.38L121.688 267.981L122.364 267.3L121.759 266.699L122.736 265.715L123.417 266.391L124.094 265.71L123.337 264.958L124.239 264.05L125.753 265.553C126.055 265.854 126.056 266.156 125.831 266.383L122.524 269.713C122.298 269.94 121.921 270.017 121.694 269.791L120.181 268.288Z" stroke="black" stroke-width="0.533335"/>
<path d="M124.044 273.026L126.617 275.582L123.611 278.609L121.037 276.054L124.044 273.026Z" fill="#FFFF00" stroke="black" stroke-width="0.533335"/>
<path d="M132.011 265.003L134.584 267.559L131.578 270.586L129.005 268.031L132.011 265.003Z" fill="#FFFF00" stroke="black" stroke-width="0.533335"/>
<path d="M118.543 274.629L119.445 273.721L120.202 274.473L120.879 273.792L120.122 273.04L121.024 272.132L121.781 272.883L122.457 272.202L121.7 271.451L122.602 270.542L124.116 272.046C124.419 272.346 124.42 272.648 124.194 272.875L120.962 276.13C120.843 276.25 120.68 276.318 120.51 276.319C120.341 276.319 120.178 276.252 120.057 276.133L118.543 274.629Z" fill="#FFFF00" stroke="black" stroke-width="0.533335"/>
<path d="M126.51 266.607L127.412 265.698L128.169 266.45L128.846 265.769L128.089 265.017L128.991 264.109L129.748 264.86L130.424 264.179L129.667 263.428L130.569 262.519L132.083 264.023C132.386 264.323 132.387 264.625 132.161 264.852L128.929 268.107C128.81 268.227 128.647 268.295 128.477 268.296C128.308 268.296 128.145 268.229 128.024 268.11L126.51 266.607Z" fill="#FFFF00" stroke="black" stroke-width="0.533335"/>
<path d="M125.467 270.08C125.013 269.629 125.689 268.948 126.143 269.399L127.354 270.601L126.678 271.282L125.467 270.08Z" fill="#000001"/>
<path d="M123.148 275.745C122.694 275.294 123.295 274.688 123.749 275.139L124.658 276.041L124.056 276.647L123.148 275.745Z" fill="#000001"/>
<path d="M131.115 267.722C130.661 267.271 131.263 266.665 131.717 267.116L132.625 268.018L132.024 268.624L131.115 267.722Z" fill="#000001"/>
<path d="M162.627 182.394C162.734 176.527 166.894 175.141 166.894 175.141C167.001 175.141 171.481 176.634 171.481 182.501L162.627 182.394Z" fill="#FFFF00"/>
<path d="M159.001 175.247L158.254 181.967H162.734C162.734 176.421 167.001 175.567 167.001 175.567C167.108 175.567 171.268 176.741 171.374 181.967H175.854L175.001 175.141L159.001 175.247ZM157.934 182.074H176.068C176.388 182.074 176.708 182.394 176.708 182.821C176.708 183.354 176.388 183.674 176.068 183.674H157.934C157.614 183.674 157.294 183.354 157.294 182.821C157.294 182.394 157.614 182.074 158.041 182.074H157.934Z" fill="#FFFF00" stroke="black" stroke-width="0.533335"/>
<path d="M164.548 181.967C164.548 178.447 167.001 177.487 167.001 177.487C167.001 177.487 169.454 178.554 169.454 181.967H164.548ZM158.361 172.367H175.748C176.068 172.367 176.388 172.794 176.388 173.22C176.388 173.54 176.068 173.86 175.748 173.86H158.361C158.041 173.86 157.721 173.54 157.721 173.114C157.721 172.794 158.041 172.474 158.361 172.474V172.367ZM158.788 173.967H175.214C175.534 173.967 175.854 174.287 175.854 174.714C175.854 175.14 175.534 175.46 175.214 175.46H158.681C158.254 175.46 158.041 175.14 158.041 174.714C158.041 174.287 158.254 173.967 158.681 173.967H158.788ZM164.121 162.66H165.401V163.514H166.361V162.66H167.748V163.62H168.708V162.554H169.988V164.687C169.988 165.114 169.774 165.327 169.454 165.327H164.761C164.441 165.327 164.121 165.114 164.121 164.794V162.66ZM169.028 165.54L169.348 172.367H164.761L165.081 165.434H169.028" fill="#FFFF00"/>
<path d="M169.028 165.54L169.348 172.367H164.761L165.081 165.434H169.028M164.548 181.967C164.548 178.447 167.001 177.487 167.001 177.487C167.001 177.487 169.454 178.554 169.454 181.967H164.548ZM158.361 172.367H175.748C176.068 172.367 176.388 172.794 176.388 173.22C176.388 173.54 176.068 173.86 175.748 173.86H158.361C158.041 173.86 157.721 173.54 157.721 173.114C157.721 172.794 158.041 172.474 158.361 172.474V172.367ZM158.788 173.967H175.214C175.534 173.967 175.854 174.287 175.854 174.714C175.854 175.14 175.534 175.46 175.214 175.46H158.681C158.254 175.46 158.041 175.14 158.041 174.714C158.041 174.287 158.254 173.967 158.681 173.967H158.788ZM164.121 162.66H165.401V163.514H166.361V162.66H167.748V163.62H168.708V162.554H169.988V164.687C169.988 165.114 169.774 165.327 169.454 165.327H164.761C164.441 165.327 164.121 165.114 164.121 164.794V162.66Z" stroke="black" stroke-width="0.533335"/>
<path d="M163.481 168.74V172.367H159.214V168.74H163.481Z" fill="#FFFF00" stroke="black" stroke-width="0.533335"/>
<path d="M174.788 168.74V172.367H170.521V168.74H174.788Z" fill="#FFFF00" stroke="black" stroke-width="0.533335"/>
<path d="M158.468 165.967H159.748V167.034H160.708V165.967H161.988V167.034H162.948V165.967H164.228V168.1C164.228 168.527 164.014 168.74 163.694 168.74H159.108C158.938 168.74 158.775 168.673 158.655 168.553C158.535 168.433 158.468 168.27 158.468 168.1V165.967Z" fill="#FFFF00" stroke="black" stroke-width="0.533335"/>
<path d="M169.774 165.967H171.054V167.034H172.014V165.967H173.294V167.034H174.254V165.967H175.534V168.1C175.534 168.527 175.321 168.74 175.001 168.74H170.414C170.244 168.74 170.082 168.673 169.962 168.553C169.842 168.433 169.774 168.27 169.774 168.1V165.967Z" fill="#FFFF00" stroke="black" stroke-width="0.533335"/>
<path d="M166.574 167.674C166.574 167.034 167.534 167.034 167.534 167.674V169.38H166.574V167.674Z" fill="#000001"/>
<path d="M160.921 170.02C160.921 169.38 161.774 169.38 161.774 170.02V171.3H160.921V170.02Z" fill="#000001"/>
<path d="M172.228 170.02C172.228 169.38 173.081 169.38 173.081 170.02V171.3H172.228V170.02Z" fill="#000001"/>
<path d="M219.908 182.394C219.801 176.527 215.641 175.141 215.641 175.141C215.534 175.141 211.054 176.634 211.054 182.501L219.908 182.394Z" fill="#FFFF00"/>
<path d="M223.534 175.247L224.281 181.967H219.801C219.801 176.421 215.534 175.567 215.534 175.567C215.428 175.567 211.268 176.741 211.161 181.967H206.681L207.534 175.141L223.534 175.247ZM224.601 182.074H206.468C206.148 182.074 205.828 182.394 205.828 182.821C205.828 183.354 206.148 183.674 206.468 183.674H224.601C224.921 183.674 225.241 183.354 225.241 182.821C225.241 182.394 224.921 182.074 224.494 182.074H224.601Z" fill="#FFFF00" stroke="black" stroke-width="0.533335"/>
<path d="M217.988 181.967C217.988 178.447 215.534 177.487 215.534 177.487C215.534 177.487 213.081 178.554 213.081 181.967H217.988ZM224.174 172.367H206.787C206.467 172.367 206.147 172.794 206.147 173.22C206.147 173.54 206.467 173.86 206.787 173.86H224.174C224.494 173.86 224.814 173.54 224.814 173.114C224.814 172.794 224.494 172.474 224.174 172.474V172.367ZM223.748 173.967H207.321C207.001 173.967 206.681 174.287 206.681 174.714C206.681 175.14 207.001 175.46 207.321 175.46H223.854C224.281 175.46 224.494 175.14 224.494 174.714C224.494 174.287 224.281 173.967 223.854 173.967H223.748ZM218.414 162.66H217.134V163.514H216.174V162.66H214.788V163.62H213.828V162.554H212.548V164.687C212.548 165.114 212.761 165.327 213.081 165.327H217.774C218.094 165.327 218.414 165.114 218.414 164.794V162.66ZM213.508 165.54L213.188 172.367H217.774L217.454 165.434H213.508" fill="#FFFF00"/>
<path d="M213.508 165.54L213.188 172.367H217.774L217.454 165.434H213.508M217.988 181.967C217.988 178.447 215.534 177.487 215.534 177.487C215.534 177.487 213.081 178.554 213.081 181.967H217.988ZM224.174 172.367H206.787C206.467 172.367 206.147 172.794 206.147 173.22C206.147 173.54 206.467 173.86 206.787 173.86H224.174C224.494 173.86 224.814 173.54 224.814 173.114C224.814 172.794 224.494 172.474 224.174 172.474V172.367ZM223.748 173.967H207.321C207.001 173.967 206.681 174.287 206.681 174.714C206.681 175.14 207.001 175.46 207.321 175.46H223.854C224.281 175.46 224.494 175.14 224.494 174.714C224.494 174.287 224.281 173.967 223.854 173.967H223.748ZM218.414 162.66H217.134V163.514H216.174V162.66H214.788V163.62H213.828V162.554H212.548V164.687C212.548 165.114 212.761 165.327 213.081 165.327H217.774C218.094 165.327 218.414 165.114 218.414 164.794V162.66Z" stroke="black" stroke-width="0.533335"/>
<path d="M219.054 168.74V172.367H223.321V168.74H219.054Z" fill="#FFFF00" stroke="black" stroke-width="0.533335"/>
<path d="M207.747 168.74V172.367H212.014V168.74H207.747Z" fill="#FFFF00" stroke="black" stroke-width="0.533335"/>
<path d="M224.068 165.967H222.788V167.034H221.828V165.967H220.548V167.034H219.588V165.967H218.308V168.1C218.308 168.527 218.521 168.74 218.841 168.74H223.428C223.597 168.74 223.76 168.673 223.88 168.553C224 168.433 224.068 168.27 224.068 168.1V165.967Z" fill="#FFFF00" stroke="black" stroke-width="0.533335"/>
<path d="M212.761 165.967H211.481V167.034H210.521V165.967H209.241V167.034H208.281V165.967H207.001V168.1C207.001 168.527 207.214 168.74 207.534 168.74H212.121C212.291 168.74 212.454 168.673 212.574 168.553C212.694 168.433 212.761 168.27 212.761 168.1V165.967Z" fill="#FFFF00" stroke="black" stroke-width="0.533335"/>
<path d="M215.961 167.674C215.961 167.034 215.001 167.034 215.001 167.674V169.38H215.961V167.674Z" fill="#000001"/>
<path d="M221.614 170.02C221.614 169.38 220.761 169.38 220.761 170.02V171.3H221.614V170.02Z" fill="#000001"/>
<path d="M210.308 170.02C210.308 169.38 209.454 169.38 209.454 170.02V171.3H210.308V170.02Z" fill="#000001"/>
<path d="M219.908 231.781C219.801 225.914 215.641 224.527 215.641 224.527C215.534 224.527 211.054 226.021 211.054 231.887L219.908 231.781Z" fill="#FFFF00"/>
<path d="M223.534 224.634L224.281 231.354H219.801C219.801 225.807 215.534 224.954 215.534 224.954C215.428 224.954 211.268 226.127 211.161 231.354H206.681L207.534 224.527L223.534 224.634ZM224.601 231.461H206.468C206.148 231.461 205.828 231.781 205.828 232.207C205.828 232.741 206.148 233.061 206.468 233.061H224.601C224.921 233.061 225.241 232.741 225.241 232.207C225.241 231.781 224.921 231.461 224.494 231.461H224.601Z" fill="#FFFF00" stroke="black" stroke-width="0.533335"/>
<path d="M217.988 231.354C217.988 227.834 215.534 226.874 215.534 226.874C215.534 226.874 213.081 227.941 213.081 231.354H217.988ZM224.174 221.754H206.787C206.467 221.754 206.147 222.181 206.147 222.607C206.147 222.927 206.467 223.247 206.787 223.247H224.174C224.494 223.247 224.814 222.927 224.814 222.501C224.814 222.181 224.494 221.861 224.174 221.861V221.754ZM223.748 223.354H207.321C207.001 223.354 206.681 223.674 206.681 224.101C206.681 224.527 207.001 224.847 207.321 224.847H223.854C224.281 224.847 224.494 224.527 224.494 224.101C224.494 223.674 224.281 223.354 223.854 223.354H223.748ZM218.414 212.047H217.134V212.901H216.174V212.047H214.788V213.007H213.828V211.941H212.548V214.074C212.548 214.501 212.761 214.714 213.081 214.714H217.774C218.094 214.714 218.414 214.501 218.414 214.181V212.047ZM213.508 214.927L213.188 221.754H217.774L217.454 214.821H213.508" fill="#FFFF00"/>
<path d="M213.508 214.927L213.188 221.754H217.774L217.454 214.821H213.508M217.988 231.354C217.988 227.834 215.534 226.874 215.534 226.874C215.534 226.874 213.081 227.941 213.081 231.354H217.988ZM224.174 221.754H206.787C206.467 221.754 206.147 222.181 206.147 222.607C206.147 222.927 206.467 223.247 206.787 223.247H224.174C224.494 223.247 224.814 222.927 224.814 222.501C224.814 222.181 224.494 221.861 224.174 221.861V221.754ZM223.748 223.354H207.321C207.001 223.354 206.681 223.674 206.681 224.101C206.681 224.527 207.001 224.847 207.321 224.847H223.854C224.281 224.847 224.494 224.527 224.494 224.101C224.494 223.674 224.281 223.354 223.854 223.354H223.748ZM218.414 212.047H217.134V212.901H216.174V212.047H214.788V213.007H213.828V211.941H212.548V214.074C212.548 214.501 212.761 214.714 213.081 214.714H217.774C218.094 214.714 218.414 214.501 218.414 214.181V212.047Z" stroke="black" stroke-width="0.533335"/>
<path d="M219.054 218.127V221.754H223.321V218.127H219.054Z" fill="#FFFF00" stroke="black" stroke-width="0.533335"/>
<path d="M207.747 218.127V221.754H212.014V218.127H207.747Z" fill="#FFFF00" stroke="black" stroke-width="0.533335"/>
<path d="M224.068 215.354H222.788V216.421H221.828V215.354H220.548V216.421H219.588V215.354H218.308V217.487C218.308 217.914 218.521 218.127 218.841 218.127H223.428C223.597 218.127 223.76 218.06 223.88 217.94C224 217.82 224.068 217.657 224.068 217.487V215.354Z" fill="#FFFF00" stroke="black" stroke-width="0.533335"/>
<path d="M212.761 215.354H211.481V216.421H210.521V215.354H209.241V216.421H208.281V215.354H207.001V217.487C207.001 217.914 207.214 218.127 207.534 218.127H212.121C212.291 218.127 212.454 218.06 212.574 217.94C212.694 217.82 212.761 217.657 212.761 217.487V215.354Z" fill="#FFFF00" stroke="black" stroke-width="0.533335"/>
<path d="M215.961 217.061C215.961 216.421 215.001 216.421 215.001 217.061V218.767H215.961V217.061Z" fill="#000001"/>
<path d="M221.614 219.407C221.614 218.767 220.761 218.767 220.761 219.407V220.687H221.614V219.407Z" fill="#000001"/>
<path d="M210.308 219.407C210.308 218.767 209.454 218.767 209.454 219.407V220.687H210.308V219.407Z" fill="#000001"/>
<path d="M200.658 283.252C204.745 279.043 202.798 275.114 202.798 275.114C202.723 275.038 198.506 272.912 194.344 277.046L200.658 283.252Z" fill="#FFFF00"/>
<path d="M208.284 280.79L204.042 286.055L200.885 282.876C204.821 278.968 202.42 275.339 202.42 275.339C202.345 275.263 198.581 273.138 194.797 276.745L191.64 273.567L197.086 269.362L208.284 280.79ZM204.192 286.357L191.414 273.49C191.189 273.263 190.736 273.262 190.434 273.562C190.055 273.938 190.054 274.391 190.279 274.618L203.057 287.485C203.282 287.712 203.735 287.713 204.113 287.338C204.416 287.037 204.417 286.584 204.117 286.282L204.192 286.357Z" fill="#FFFF00" stroke="black" stroke-width="0.533335"/>
<path d="M199.607 281.589C202.105 279.109 201.058 276.692 201.058 276.692C201.058 276.692 198.572 275.703 196.15 278.108L199.607 281.589ZM210.779 279.215L198.527 266.878C198.302 266.651 197.774 266.724 197.471 267.025C197.244 267.25 197.242 267.703 197.468 267.93L209.719 280.267C209.944 280.494 210.397 280.496 210.7 280.195C210.927 279.97 210.928 279.517 210.703 279.29L210.779 279.215ZM209.343 280.039L197.768 268.384C197.542 268.156 197.09 268.155 196.787 268.456C196.484 268.756 196.483 269.209 196.708 269.436L208.358 281.167C208.659 281.47 209.036 281.396 209.339 281.095C209.642 280.795 209.718 280.418 209.418 280.115L209.343 280.039ZM213.608 268.288L212.706 267.38L212.1 267.981L211.424 267.3L212.029 266.699L211.052 265.715L210.371 266.391L209.694 265.71L210.451 264.958L209.549 264.05L208.036 265.553C207.733 265.854 207.732 266.156 207.957 266.383L211.264 269.713C211.49 269.94 211.867 270.017 212.094 269.791L213.608 268.288ZM208.107 266.836L203.037 271.419L206.269 274.674L210.963 269.561L208.182 266.761" fill="#FFFF00"/>
<path d="M208.107 266.836L203.037 271.419L206.269 274.674L210.963 269.561L208.182 266.761M199.607 281.589C202.105 279.109 201.058 276.692 201.058 276.692C201.058 276.692 198.572 275.703 196.15 278.108L199.607 281.589ZM210.779 279.215L198.527 266.878C198.302 266.651 197.774 266.724 197.471 267.025C197.244 267.25 197.242 267.703 197.468 267.93L209.719 280.267C209.944 280.494 210.397 280.496 210.7 280.195C210.927 279.97 210.928 279.517 210.703 279.29L210.779 279.215ZM209.343 280.039L197.768 268.384C197.542 268.156 197.09 268.155 196.787 268.456C196.484 268.756 196.483 269.209 196.708 269.436L208.358 281.167C208.659 281.47 209.036 281.396 209.339 281.095C209.642 280.795 209.718 280.418 209.418 280.115L209.343 280.039ZM213.608 268.288L212.706 267.38L212.1 267.981L211.424 267.3L212.029 266.699L211.052 265.715L210.371 266.391L209.694 265.71L210.451 264.958L209.549 264.05L208.036 265.553C207.733 265.854 207.732 266.156 207.957 266.383L211.264 269.713C211.49 269.94 211.867 270.017 212.094 269.791L213.608 268.288Z" stroke="black" stroke-width="0.533335"/>
<path d="M209.744 273.026L207.171 275.582L210.177 278.609L212.751 276.054L209.744 273.026Z" fill="#FFFF00" stroke="black" stroke-width="0.533335"/>
<path d="M201.777 265.003L199.204 267.559L202.21 270.586L204.784 268.031L201.777 265.003Z" fill="#FFFF00" stroke="black" stroke-width="0.533335"/>
<path d="M215.245 274.629L214.343 273.721L213.586 274.473L212.91 273.792L213.666 273.04L212.765 272.132L212.008 272.883L211.331 272.202L212.088 271.451L211.186 270.542L209.672 272.046C209.37 272.346 209.369 272.648 209.594 272.875L212.826 276.13C212.946 276.25 213.108 276.318 213.278 276.319C213.448 276.319 213.611 276.252 213.731 276.133L215.245 274.629Z" fill="#FFFF00" stroke="black" stroke-width="0.533335"/>
<path d="M207.278 266.607L206.376 265.698L205.619 266.45L204.943 265.769L205.699 265.017L204.798 264.109L204.041 264.86L203.364 264.179L204.121 263.428L203.219 262.519L201.705 264.023C201.403 264.323 201.402 264.625 201.627 264.852L204.859 268.107C204.979 268.227 205.141 268.295 205.311 268.296C205.481 268.296 205.644 268.229 205.764 268.11L207.278 266.607Z" fill="#FFFF00" stroke="black" stroke-width="0.533335"/>
<path d="M208.322 270.08C208.776 269.629 208.099 268.948 207.645 269.399L206.434 270.601L207.111 271.282L208.322 270.08Z" fill="#000001"/>
<path d="M210.64 275.745C211.094 275.294 210.493 274.688 210.039 275.139L209.13 276.041L209.732 276.647L210.64 275.745Z" fill="#000001"/>
<path d="M202.673 267.722C203.127 267.271 202.526 266.665 202.072 267.116L201.163 268.018L201.765 268.624L202.673 267.722Z" fill="#000001"/>
<path d="M159.108 233.594C159.088 235.845 159.927 238.019 161.454 239.674C162.167 240.471 163.037 241.11 164.011 241.55C164.984 241.991 166.039 242.224 167.108 242.234C169.348 242.234 171.374 241.167 172.761 239.674C174.288 238.019 175.127 235.845 175.108 233.594V222.074H159.108V233.594Z" fill="#003399"/>
<path d="M162.841 228.047C163.724 228.047 164.441 227.331 164.441 226.447C164.441 225.564 163.724 224.847 162.841 224.847C161.957 224.847 161.241 225.564 161.241 226.447C161.241 227.331 161.957 228.047 162.841 228.047Z" fill="white"/>
<path d="M171.694 228.047C172.578 228.047 173.294 227.331 173.294 226.447C173.294 225.564 172.578 224.847 171.694 224.847C170.811 224.847 170.094 225.564 170.094 226.447C170.094 227.331 170.811 228.047 171.694 228.047Z" fill="white"/>
<path d="M167.214 232.314C168.098 232.314 168.814 231.598 168.814 230.714C168.814 229.83 168.098 229.114 167.214 229.114C166.331 229.114 165.614 229.83 165.614 230.714C165.614 231.598 166.331 232.314 167.214 232.314Z" fill="white"/>
<path d="M162.841 236.794C163.724 236.794 164.441 236.078 164.441 235.194C164.441 234.31 163.724 233.594 162.841 233.594C161.957 233.594 161.241 234.31 161.241 235.194C161.241 236.078 161.957 236.794 162.841 236.794Z" fill="white"/>
<path d="M171.694 236.794C172.578 236.794 173.294 236.078 173.294 235.194C173.294 234.31 172.578 233.594 171.694 233.594C170.811 233.594 170.094 234.31 170.094 235.194C170.094 236.078 170.811 236.794 171.694 236.794Z" fill="white"/>
<path d="M159.108 205.861C159.088 208.112 159.927 210.286 161.454 211.941C162.167 212.737 163.037 213.376 164.011 213.817C164.984 214.258 166.039 214.491 167.108 214.501C169.348 214.501 171.374 213.434 172.761 211.941C174.288 210.286 175.127 208.112 175.108 205.861V194.341H159.108V205.861Z" fill="#003399"/>
<path d="M162.841 200.314C163.724 200.314 164.441 199.598 164.441 198.714C164.441 197.83 163.724 197.114 162.841 197.114C161.957 197.114 161.241 197.83 161.241 198.714C161.241 199.598 161.957 200.314 162.841 200.314Z" fill="white"/>
<path d="M171.694 200.314C172.578 200.314 173.294 199.598 173.294 198.714C173.294 197.83 172.578 197.114 171.694 197.114C170.811 197.114 170.094 197.83 170.094 198.714C170.094 199.598 170.811 200.314 171.694 200.314Z" fill="white"/>
<path d="M167.214 204.581C168.098 204.581 168.814 203.864 168.814 202.981C168.814 202.097 168.098 201.381 167.214 201.381C166.331 201.381 165.614 202.097 165.614 202.981C165.614 203.864 166.331 204.581 167.214 204.581Z" fill="white"/>
<path d="M162.841 209.061C163.724 209.061 164.441 208.344 164.441 207.461C164.441 206.577 163.724 205.861 162.841 205.861C161.957 205.861 161.241 206.577 161.241 207.461C161.241 208.344 161.957 209.061 162.841 209.061Z" fill="white"/>
<path d="M171.694 209.061C172.578 209.061 173.294 208.344 173.294 207.461C173.294 206.577 172.578 205.861 171.694 205.861C170.811 205.861 170.094 206.577 170.094 207.461C170.094 208.344 170.811 209.061 171.694 209.061Z" fill="white"/>
<path d="M136.921 233.594C136.901 235.845 137.741 238.019 139.267 239.674C139.98 240.471 140.851 241.11 141.824 241.55C142.797 241.991 143.852 242.224 144.921 242.234C147.161 242.234 149.187 241.167 150.574 239.674C152.101 238.019 152.94 235.845 152.921 233.594V222.074H136.921V233.594Z" fill="#003399"/>
<path d="M140.654 228.047C141.538 228.047 142.254 227.331 142.254 226.447C142.254 225.564 141.538 224.847 140.654 224.847C139.771 224.847 139.054 225.564 139.054 226.447C139.054 227.331 139.771 228.047 140.654 228.047Z" fill="white"/>
<path d="M149.507 228.047C150.391 228.047 151.107 227.331 151.107 226.447C151.107 225.564 150.391 224.847 149.507 224.847C148.624 224.847 147.907 225.564 147.907 226.447C147.907 227.331 148.624 228.047 149.507 228.047Z" fill="white"/>
<path d="M145.027 232.314C145.911 232.314 146.628 231.598 146.628 230.714C146.628 229.83 145.911 229.114 145.027 229.114C144.144 229.114 143.427 229.83 143.427 230.714C143.427 231.598 144.144 232.314 145.027 232.314Z" fill="white"/>
<path d="M140.654 236.794C141.538 236.794 142.254 236.078 142.254 235.194C142.254 234.31 141.538 233.594 140.654 233.594C139.771 233.594 139.054 234.31 139.054 235.194C139.054 236.078 139.771 236.794 140.654 236.794Z" fill="white"/>
<path d="M149.507 236.794C150.391 236.794 151.107 236.078 151.107 235.194C151.107 234.31 150.391 233.594 149.507 233.594C148.624 233.594 147.907 234.31 147.907 235.194C147.907 236.078 148.624 236.794 149.507 236.794Z" fill="white"/>
<path d="M181.294 233.594C181.275 235.845 182.114 238.019 183.641 239.674C184.353 240.471 185.224 241.11 186.198 241.55C187.171 241.991 188.226 242.224 189.294 242.234C191.534 242.234 193.561 241.167 194.948 239.674C196.474 238.019 197.314 235.845 197.294 233.594V222.074H181.294V233.594Z" fill="#003399"/>
<path d="M185.028 228.047C185.911 228.047 186.628 227.331 186.628 226.447C186.628 225.564 185.911 224.847 185.028 224.847C184.144 224.847 183.428 225.564 183.428 226.447C183.428 227.331 184.144 228.047 185.028 228.047Z" fill="white"/>
<path d="M193.881 228.047C194.765 228.047 195.481 227.331 195.481 226.447C195.481 225.564 194.765 224.847 193.881 224.847C192.997 224.847 192.281 225.564 192.281 226.447C192.281 227.331 192.997 228.047 193.881 228.047Z" fill="white"/>
<path d="M189.401 232.314C190.285 232.314 191.001 231.598 191.001 230.714C191.001 229.83 190.285 229.114 189.401 229.114C188.517 229.114 187.801 229.83 187.801 230.714C187.801 231.598 188.517 232.314 189.401 232.314Z" fill="white"/>
<path d="M185.028 236.794C185.911 236.794 186.628 236.078 186.628 235.194C186.628 234.31 185.911 233.594 185.028 233.594C184.144 233.594 183.428 234.31 183.428 235.194C183.428 236.078 184.144 236.794 185.028 236.794Z" fill="white"/>
<path d="M193.881 236.794C194.765 236.794 195.481 236.078 195.481 235.194C195.481 234.31 194.765 233.594 193.881 233.594C192.997 233.594 192.281 234.31 192.281 235.194C192.281 236.078 192.997 236.794 193.881 236.794Z" fill="white"/>
<path d="M159.108 261.114C159.088 263.365 159.927 265.54 161.454 267.194C162.167 267.991 163.037 268.63 164.011 269.071C164.984 269.511 166.039 269.744 167.108 269.754C169.348 269.754 171.374 268.687 172.761 267.194C174.288 265.54 175.127 263.365 175.108 261.114V249.594H159.108V261.114Z" fill="#003399"/>
<path d="M162.841 255.567C163.724 255.567 164.441 254.851 164.441 253.967C164.441 253.084 163.724 252.367 162.841 252.367C161.957 252.367 161.241 253.084 161.241 253.967C161.241 254.851 161.957 255.567 162.841 255.567Z" fill="white"/>
<path d="M171.694 255.567C172.578 255.567 173.294 254.851 173.294 253.967C173.294 253.084 172.578 252.367 171.694 252.367C170.811 252.367 170.094 253.084 170.094 253.967C170.094 254.851 170.811 255.567 171.694 255.567Z" fill="white"/>
<path d="M167.214 259.834C168.098 259.834 168.814 259.118 168.814 258.234C168.814 257.35 168.098 256.634 167.214 256.634C166.331 256.634 165.614 257.35 165.614 258.234C165.614 259.118 166.331 259.834 167.214 259.834Z" fill="white"/>
<path d="M162.841 264.314C163.724 264.314 164.441 263.598 164.441 262.714C164.441 261.83 163.724 261.114 162.841 261.114C161.957 261.114 161.241 261.83 161.241 262.714C161.241 263.598 161.957 264.314 162.841 264.314Z" fill="white"/>
<path d="M171.694 264.314C172.578 264.314 173.294 263.598 173.294 262.714C173.294 261.83 172.578 261.114 171.694 261.114C170.811 261.114 170.094 261.83 170.094 262.714C170.094 263.598 170.811 264.314 171.694 264.314Z" fill="white"/>
</g>
</g>
<defs>
<clipPath id="clip0_45_199">
<rect width="462" height="462" rx="231" fill="white"/>
</clipPath>
<clipPath id="clip1_45_199">
<rect width="640" height="480" fill="white" transform="translate(-89 -9)"/>
</clipPath>
</defs>
</svg>
